<?xml version="1.0" encoding="utf-8"?>
<!-- Generator: Adobe Illustrator 18.1.1, SVG Export Plug-In . SVG Version: 6.00 Build 0)  -->
<svg version="1.1" id="Capa_1" xmlns="http://www.w3.org/2000/svg" xmlns:xlink="http://www.w3.org/1999/xlink" x="0px" y="0px"
	 viewBox="0 0 221.064 91.791" enable-background="new 0 0 221.064 91.791" xml:space="preserve">
<g id="Automóvil">
</g>
<g>
	<polyline fill-rule="evenodd" clip-rule="evenodd" fill="#FCCA3A" points="6.186,77.163 27.248,76.663 66.778,79.077 
		162.502,78.251 199.896,82.847 204.245,72.85 198.049,47.882 26.803,47.882 	"/>
	<path fill="#B20F77" d="M78.853,60.315c0,0-1.218-27.752-78.521-21.483l5.475,25.958c0,0-6.694,8.952-1.825,12.533l23.267-0.66
		c-0.285-1.362-0.438-2.775-0.438-4.225c0-11.341,9.194-20.534,20.536-20.534c11.341,0,20.535,9.193,20.535,20.534
		c0,2.326-0.392,4.556-1.104,6.639l95.724-0.825c-0.545-1.844-0.842-3.792-0.842-5.813c0-11.341,9.193-20.534,20.537-20.534
		c11.34,0,20.533,9.193,20.533,20.534c0,3.8-1.035,7.356-2.834,10.409l5.566,0.742l-1.218-10.739l-0.608-8.954l6.088-18.8
		c0,0,9.13-4.476,9.13-14.323C218.854,30.773,129.983,27.194,78.853,60.315z"/>
	<ellipse fill="#FFFF06" stroke="#1C1C1B" cx="1.251" cy="45.345" rx="3.461" ry="1.973"/>
	<ellipse fill="#FFFF06" stroke="#1C1C1B" cx="2.265" cy="48.698" rx="3.461" ry="1.972"/>
	<ellipse fill="#FFFF06" stroke="#1C1C1B" cx="3.277" cy="51.866" rx="3.462" ry="1.97"/>
	<path fill="#FFFFFF" d="M68.77,77.163h88.77c0,0-7.518-7.369,0.358-11.054c0,0-9.667-1.055-6.803,6.843L68.77,77.163z"/>
	<path fill="#950FCE" d="M151.896,35.248l-6.694-24.166l8.781,0.769c0,0-61.738-41.054-122.002,29.665l28.609,7.162
		c0,0-7.913-39.388,79.133-37.596L151.896,35.248z"/>
	<path fill="#FFFFFF" d="M210.747,33.958c0,0-71.399-4.363-131.129,28.503c0,0,60.52-28.503,125.392-26.761L210.747,33.958z"/>
	<path fill="#FFFFFF" d="M77.84,61.878c0,0-0.992-18.907-45.096-21.812C32.744,40.066,68.346,43.846,77.84,61.878z"/>
	<path fill="#1C1C1B" d="M145.463,72.061c0,0-0.742-0.896,0.246-5.369l-79.941,5.817L145.463,72.061z"/>
	<path fill="#FFFFFF" stroke="#1C1C1B" stroke-width="0.9747" d="M50.242,32.119c0,3.212,1.773,5.814,3.956,5.814
		c2.186,0,3.961-2.603,3.961-5.814c0-3.216-1.775-5.822-3.961-5.822C52.016,26.296,50.242,28.903,50.242,32.119z"/>
	<polyline fill="#1C1C1B" points="144.255,36.722 137.186,30.779 139.004,24.541 131.125,37.909 136.174,33.156 142.842,37.313 	"/>
	<path fill="#1C1C1B" d="M105.385,41.38l-1.732-13.572c1.214-2.081,4.848-0.594,4.848-0.594l3.584,13.47l15.203-1.587h0.402
		c-25.047,4.454-48.48,19.607-48.48,19.607c-2.22-10.994-11.716-13.369-11.716-13.369L105.385,41.38z"/>
	<path fill="#1C1C1B" d="M29.518,39.097c0,0-6.263-18.718-13.737-23.471c0,0,9.495,10.991,12.122,23.471H29.518z"/>
	<path fill="#1C1C1B" d="M14.972,15.627c0,0.986,0.542,1.78,1.213,1.78c0.668,0,1.211-0.794,1.211-1.78
		c0-0.983-0.543-1.781-1.211-1.781C15.514,13.845,14.972,14.643,14.972,15.627z"/>
	<path fill="#FFFFFF" d="M207.715,44.965c0,0-10.822-2.395-45.259,2.396c0,0,41.768-2.222,41.188,0.345
		c-0.584,2.566-16.389,2.311-16.389,2.311s16.038,0.597,14.758,3.336c-1.278,2.737-6.708,2.102-6.708,2.102l7.523,3.886
		c0,0,3.828-8.935,4.888-14.03"/>
	<path fill="#FFFFFF" d="M4.514,42.221c0,0,25.616-5.566,51.814,9.415c0,0-32.312-1.926-48.903,7.491c0,0,8.587-9.415,31.437-10.272
		c0,0-15.718-4.067-32.164,1.284c0,0,1.892-4.496,25.033-4.923C31.73,45.216,15.575,40.722,4.514,42.221z"/>
	<path fill="#1C1C1B" d="M147.244,9.579c0,0-69.152-5.262-82.264,21.041C64.98,30.62,70.086,1.314,147.244,9.579z"/>
</g>
<path fill="#FFFF06" stroke="#1C1C1B" d="M215.366,37.544c2.42-3.577,3.166-5.715,1.544-5.751c-1.886-0.04-5.705,2.905-8.123,6.48
	c-2.42,3.577-2.211,6.88-0.637,6.48C209.712,44.345,212.951,41.123,215.366,37.544z"/>
<g>
	<g>
		<path fill-rule="evenodd" clip-rule="evenodd" fill="#1D1D1B" d="M165.19,71.61c0-10.648,8.577-19.28,19.154-19.28
			c10.579,0,19.157,8.632,19.157,19.28c0,10.651-8.578,19.284-19.157,19.284C173.768,90.894,165.19,82.261,165.19,71.61z"/>
		<path fill-rule="evenodd" clip-rule="evenodd" fill="#CECEB8" d="M171.107,71.61c0-7.36,5.929-13.326,13.237-13.326
			c7.315,0,13.239,5.966,13.239,13.326c0,7.361-5.924,13.327-13.239,13.327C177.036,84.937,171.107,78.971,171.107,71.61z"/>
		<g>
			<path fill-rule="evenodd" clip-rule="evenodd" fill="#FCCA3A" d="M185.304,61.865c-0.527-3.868-1.389-3.868-1.917,0
				s-4.067,6.469-7.865,5.781c-3.798-0.688-4.064,0.141-0.591,1.842s4.825,5.91,3.004,9.353c-1.821,3.443-1.123,3.956,1.55,1.14
				c2.673-2.816,7.048-2.816,9.721,0c2.673,2.816,3.37,2.302,1.548-1.14c-1.821-3.443-0.47-7.651,3.004-9.353
				c3.473-1.702,3.208-2.531-0.591-1.842C189.369,68.334,185.831,65.732,185.304,61.865z"/>
		</g>
		<path fill-rule="evenodd" clip-rule="evenodd" fill="#1C1C1B" d="M179.841,71.61c0-2.502,2.015-4.535,4.504-4.535
			c2.489,0,4.505,2.033,4.505,4.535c0,2.503-2.016,4.534-4.505,4.534C181.855,76.144,179.841,74.113,179.841,71.61z"/>
	</g>
</g>
<g>
	<g>
		<path fill-rule="evenodd" clip-rule="evenodd" fill="#1D1D1B" d="M31.086,72.507c0-10.648,8.577-19.28,19.154-19.28
			c10.579,0,19.156,8.632,19.156,19.28c0,10.651-8.577,19.284-19.156,19.284C39.663,91.791,31.086,83.159,31.086,72.507z"/>
		<path fill-rule="evenodd" clip-rule="evenodd" fill="#CECEB8" d="M37.002,72.507c0-7.359,5.929-13.326,13.238-13.326
			c7.315,0,13.239,5.967,13.239,13.326c0,7.361-5.924,13.327-13.239,13.327C42.931,85.834,37.002,79.869,37.002,72.507z"/>
		<g>
			<path fill-rule="evenodd" clip-rule="evenodd" fill="#FCCA3A" d="M51.2,62.762c-0.527-3.868-1.389-3.868-1.917,0
				s-4.067,6.469-7.865,5.781c-3.798-0.688-4.065,0.141-0.592,1.843c3.473,1.702,4.825,5.911,3.004,9.353
				c-1.821,3.442-1.123,3.955,1.551,1.14c2.673-2.815,7.048-2.815,9.72,0c2.673,2.816,3.369,2.303,1.548-1.14
				c-1.821-3.442-0.469-7.651,3.004-9.353c3.473-1.702,3.207-2.531-0.591-1.843C55.265,69.231,51.726,66.63,51.2,62.762z"/>
		</g>
		<ellipse fill-rule="evenodd" clip-rule="evenodd" fill="#1C1C1B" cx="50.24" cy="72.507" rx="4.504" ry="4.534"/>
	</g>
</g>
</svg>
