<?xml version="1.0" encoding="utf-8"?>
<!-- Generator: Adobe Illustrator 18.1.1, SVG Export Plug-In . SVG Version: 6.00 Build 0)  -->
<svg version="1.1" id="Capa_1" xmlns="http://www.w3.org/2000/svg" xmlns:xlink="http://www.w3.org/1999/xlink" x="0px" y="0px"
	 viewBox="0 0 550 200" enable-background="new 0 0 550 200" xml:space="preserve">
<g id="Automóvil">
</g>
<rect y="-3.308" fill-rule="evenodd" clip-rule="evenodd" fill="#B0B256" width="550" height="199.116"/>
<path fill="#495E67" d="M550,176.604c-0.242,0.01-0.487,0.018-0.743,0.018c-9.882,0-9.882-7.567-19.766-7.567
	c-9.887,0-9.887,7.567-19.771,7.567c-9.886,0-9.886-7.567-19.772-7.567c-9.883,0-9.883,7.567-19.768,7.567
	c-9.886,0-9.886-7.567-19.77-7.567c-9.884,0-9.884,7.567-19.771,7.567c-9.883,0-9.883-7.567-19.766-7.567
	c-9.888,0-9.888,7.567-19.773,7.567c-9.882,0-9.882-7.567-19.768-7.567c-9.379,0-9.863,6.811-18.336,7.505
	c-8.477-0.694-8.961-7.505-18.344-7.505c-9.889,0-9.889,7.567-19.775,7.567c-9.885,0-9.885-7.567-19.772-7.567
	c-9.886,0-9.886,7.567-19.771,7.567c-9.888,0-9.888-7.567-19.773-7.567c-9.885,0-9.885,7.567-19.771,7.567
	c-9.886,0-9.886-7.567-19.77-7.567c-9.883,0-9.883,7.567-19.768,7.567c-9.881,0-9.881-7.567-19.765-7.567
	c-9.887,0-9.887,7.567-19.77,7.567c-9.886,0-9.886-7.567-19.771-7.567c-9.883,0-9.883,7.567-19.768,7.567
	c-9.886,0-9.886-7.567-19.77-7.567s-9.884,7.567-19.771,7.567c-9.883,0-9.883-7.567-19.766-7.567c-9.888,0-9.888,7.567-19.772,7.567
	c-9.882,0-9.882-7.567-19.768-7.567c-9.379,0-9.864,6.811-18.336,7.505V201h550V176.604z"/>
<g>
	<g>
		<g>
			<polyline fill-rule="evenodd" clip-rule="evenodd" fill="#014262" points="13.966,146.051 35.027,145.551 74.558,147.965 
				170.281,147.14 207.676,151.736 212.024,141.739 205.828,116.771 34.582,116.771 			"/>
			<path fill="#0081BA" d="M86.633,129.204c0,0-1.218-27.752-78.521-21.483l5.475,25.958c0,0-6.694,8.952-1.825,12.533l23.267-0.66
				c-0.285-1.362-0.438-2.775-0.438-4.225c0-11.341,9.194-20.534,20.536-20.534c11.341,0,20.535,9.193,20.535,20.534
				c0,2.326-0.392,4.556-1.104,6.639l95.724-0.825c-0.545-1.844-0.842-3.792-0.842-5.813c0-11.341,9.193-20.534,20.537-20.534
				c11.34,0,20.533,9.193,20.533,20.534c0,3.8-1.035,7.356-2.834,10.409l5.566,0.742l-1.218-10.739l-0.608-8.954l6.088-18.8
				c0,0,9.13-4.476,9.13-14.323C226.634,99.662,137.763,96.082,86.633,129.204z"/>
			<ellipse fill="#F8B133" stroke="#005980" cx="9.031" cy="114.234" rx="3.461" ry="1.973"/>
			<ellipse fill="#F8B133" stroke="#005980" cx="10.044" cy="117.586" rx="3.461" ry="1.972"/>
			<ellipse fill="#F8B133" stroke="#005980" cx="11.057" cy="120.754" rx="3.462" ry="1.97"/>
			<path fill="#FFFFFF" d="M76.549,146.051h88.77c0,0-7.518-7.369,0.358-11.054c0,0-9.667-1.055-6.803,6.843L76.549,146.051z"/>
			<path fill="#0081BA" d="M159.676,104.136l-6.694-24.166l8.781,0.769c0,0-61.738-41.054-122.002,29.665l28.609,7.162
				c0,0-7.913-39.388,79.133-37.596L159.676,104.136z"/>
			<path fill="#FFFFFF" d="M218.526,102.846c0,0-71.399-4.363-131.129,28.503c0,0,60.521-28.503,125.392-26.761L218.526,102.846z"/>
			<path fill="#FFFFFF" d="M85.619,130.767c0,0-0.992-18.907-45.096-21.813C40.523,108.955,76.125,112.735,85.619,130.767z"/>
			<path fill="#005980" d="M153.242,140.95c0,0-0.742-0.896,0.246-5.369l-79.941,5.817L153.242,140.95z"/>
			<path fill="#FFFFFF" stroke="#005980" stroke-width="0.9747" d="M58.021,101.007c0,3.212,1.773,5.814,3.956,5.814
				c2.186,0,3.961-2.603,3.961-5.814c0-3.216-1.775-5.822-3.961-5.822C59.795,95.185,58.021,97.791,58.021,101.007z"/>
			<polyline fill="#0081BA" points="152.034,105.611 144.965,99.668 146.783,93.429 138.904,106.797 143.953,102.044 
				150.621,106.202 			"/>
			<path fill="#005980" d="M113.164,110.269l-1.732-13.572c1.214-2.081,4.848-0.594,4.848-0.594l3.584,13.47l15.203-1.587h0.402
				c-25.047,4.454-48.48,19.607-48.48,19.607c-2.22-10.994-11.716-13.369-11.716-13.369L113.164,110.269z"/>
			<path fill="#0081BA" d="M37.297,107.986c0,0-6.263-18.718-13.737-23.471c0,0,9.495,10.991,12.122,23.471H37.297z"/>
			<path fill="#0081BA" d="M22.751,84.515c0,0.986,0.542,1.78,1.213,1.78c0.668,0,1.211-0.794,1.211-1.78
				c0-0.983-0.543-1.781-1.211-1.781C23.293,82.734,22.751,83.532,22.751,84.515z"/>
			<path fill="#005980" d="M215.494,113.854c0,0-10.822-2.394-45.259,2.397c0,0,41.768-2.222,41.188,0.345
				c-0.584,2.566-16.389,2.311-16.389,2.311s16.038,0.597,14.758,3.336c-1.278,2.737-6.708,2.102-6.708,2.102l7.522,3.886
				c0,0,3.828-8.935,4.888-14.03"/>
			<path fill="#005980" d="M12.293,111.11c0,0,25.616-5.566,51.814,9.415c0,0-32.312-1.926-48.903,7.491
				c0,0,8.587-9.415,31.436-10.272c0,0-15.718-4.067-32.164,1.284c0,0,1.892-4.496,25.033-4.923
				C39.51,114.105,23.354,109.611,12.293,111.11z"/>
			<path fill="#005980" d="M155.023,78.467c0,0-69.152-5.262-82.264,21.041C72.76,99.508,77.865,70.203,155.023,78.467z"/>
		</g>
		<path fill="#F8B133" stroke="#005980" d="M223.145,106.433c2.42-3.577,3.166-5.715,1.544-5.751
			c-1.886-0.04-5.705,2.905-8.123,6.48c-2.42,3.577-2.211,6.88-0.637,6.479C217.491,113.234,220.73,110.011,223.145,106.433z"/>
	</g>
	<g>
		<g>
			<path fill-rule="evenodd" clip-rule="evenodd" fill="#1D1D1B" d="M172.97,140.499c0-10.648,8.577-19.28,19.154-19.28
				c10.579,0,19.157,8.632,19.157,19.28c0,10.651-8.578,19.284-19.157,19.284C181.547,159.783,172.97,151.15,172.97,140.499z"/>
			<path fill-rule="evenodd" clip-rule="evenodd" fill="#CECEB8" d="M178.887,140.499c0-7.36,5.929-13.326,13.237-13.326
				c7.316,0,13.239,5.966,13.239,13.326c0,7.361-5.924,13.327-13.239,13.327C184.815,153.826,178.887,147.86,178.887,140.499z"/>
			<g>
				<path fill-rule="evenodd" clip-rule="evenodd" fill="#BD1622" d="M193.084,130.753c-0.527-3.868-1.39-3.868-1.917,0
					c-0.527,3.868-4.066,6.469-7.864,5.781c-3.799-0.688-4.064,0.141-0.592,1.842c3.473,1.701,4.824,5.91,3.004,9.354
					c-1.82,3.442-1.123,3.955,1.551,1.14c2.673-2.815,7.047-2.815,9.721,0c2.673,2.816,3.369,2.303,1.548-1.14
					c-1.821-3.443-0.47-7.652,3.004-9.354c3.474-1.701,3.208-2.53-0.591-1.842C197.148,137.222,193.61,134.622,193.084,130.753z"/>
			</g>
			<path fill-rule="evenodd" clip-rule="evenodd" fill="#B1B28F" d="M187.62,140.499c0-2.502,2.015-4.535,4.504-4.535
				c2.489,0,4.505,2.033,4.505,4.535c0,2.503-2.016,4.534-4.505,4.534C189.635,145.033,187.62,143.001,187.62,140.499z"/>
		</g>
	</g>
	<g>
		<g>
			<path fill-rule="evenodd" clip-rule="evenodd" fill="#1D1D1B" d="M38.865,141.396c0-10.648,8.577-19.28,19.154-19.28
				c10.579,0,19.156,8.632,19.156,19.28c0,10.651-8.577,19.284-19.156,19.284C47.442,160.68,38.865,152.047,38.865,141.396z"/>
			<path fill-rule="evenodd" clip-rule="evenodd" fill="#CECEB8" d="M44.781,141.396c0-7.359,5.929-13.326,13.238-13.326
				c7.315,0,13.239,5.967,13.239,13.326c0,7.361-5.924,13.327-13.239,13.327C50.71,154.723,44.781,148.757,44.781,141.396z"/>
			<g>
				<path fill-rule="evenodd" clip-rule="evenodd" fill="#BD1622" d="M58.979,131.651c-0.526-3.868-1.389-3.868-1.916,0
					c-0.527,3.868-4.066,6.469-7.865,5.78c-3.799-0.688-4.064,0.142-0.592,1.844c3.473,1.701,4.825,5.91,3.004,9.352
					c-1.82,3.442-1.122,3.955,1.551,1.14c2.674-2.815,7.048-2.815,9.721,0c2.673,2.815,3.369,2.303,1.549-1.14
					c-1.821-3.442-0.47-7.651,3.004-9.352c3.473-1.702,3.207-2.531-0.592-1.844C63.044,138.12,59.506,135.519,58.979,131.651z"/>
			</g>
			<ellipse fill-rule="evenodd" clip-rule="evenodd" fill="#B1B28F" cx="58.02" cy="141.396" rx="4.504" ry="4.534"/>
		</g>
	</g>
</g>
</svg>
