<?xml version="1.0" encoding="utf-8"?>
<!-- Generator: Adobe Illustrator 18.1.1, SVG Export Plug-In . SVG Version: 6.00 Build 0)  -->
<svg version="1.1" id="Capa_1" xmlns="http://www.w3.org/2000/svg" xmlns:xlink="http://www.w3.org/1999/xlink" x="0px" y="0px"
	 viewBox="0 0 221.064 91.791" enable-background="new 0 0 221.064 91.791" xml:space="preserve">
<g id="Automóvil">
</g>
<g>
	<g>
		<polyline fill-rule="evenodd" clip-rule="evenodd" fill="#014262" points="8.396,77.163 29.458,76.663 68.988,79.077 
			164.712,78.251 202.106,82.847 206.455,72.85 200.259,47.882 29.013,47.882 		"/>
		<path fill="#0081BA" d="M81.063,60.315c0,0-1.218-27.752-78.521-21.483l5.475,25.958c0,0-6.694,8.952-1.825,12.533l23.267-0.66
			c-0.285-1.362-0.438-2.775-0.438-4.225c0-11.341,9.194-20.534,20.536-20.534c11.341,0,20.535,9.193,20.535,20.534
			c0,2.326-0.392,4.556-1.104,6.639l95.724-0.825c-0.545-1.844-0.842-3.792-0.842-5.813c0-11.341,9.193-20.534,20.537-20.534
			c11.34,0,20.533,9.193,20.533,20.534c0,3.8-1.035,7.356-2.834,10.409l5.566,0.742l-1.218-10.739l-0.608-8.954l6.088-18.8
			c0,0,9.13-4.476,9.13-14.323C221.064,30.773,132.193,27.194,81.063,60.315z"/>
		<ellipse fill="#F8B133" stroke="#005980" cx="3.461" cy="45.345" rx="3.461" ry="1.973"/>
		<ellipse fill="#F8B133" stroke="#005980" cx="4.475" cy="48.698" rx="3.461" ry="1.972"/>
		<ellipse fill="#F8B133" stroke="#005980" cx="5.487" cy="51.866" rx="3.462" ry="1.97"/>
		<path fill="#FFFFFF" d="M70.979,77.163h88.769c0,0-7.518-7.369,0.358-11.054c0,0-9.667-1.055-6.803,6.843L70.979,77.163z"/>
		<path fill="#0081BA" d="M154.106,35.247l-6.694-24.166l8.781,0.769c0,0-61.738-41.054-122.002,29.665l28.609,7.162
			c0,0-7.913-39.388,79.133-37.596L154.106,35.247z"/>
		<path fill="#FFFFFF" d="M212.957,33.958c0,0-71.399-4.363-131.129,28.503c0,0,60.521-28.503,125.392-26.761L212.957,33.958z"/>
		<path fill="#FFFFFF" d="M80.05,61.878c0,0-0.992-18.907-45.096-21.812C34.954,40.066,70.556,43.846,80.05,61.878z"/>
		<path fill="#005980" d="M147.673,72.061c0,0-0.742-0.896,0.246-5.369l-79.941,5.817L147.673,72.061z"/>
		<path fill="#FFFFFF" stroke="#005980" stroke-width="0.9747" d="M52.452,32.119c0,3.212,1.773,5.814,3.956,5.814
			c2.186,0,3.961-2.602,3.961-5.814c0-3.216-1.775-5.822-3.961-5.822C54.225,26.296,52.452,28.903,52.452,32.119z"/>
		<polyline fill="#0081BA" points="146.465,36.722 139.395,30.779 141.214,24.54 133.335,37.909 138.384,33.156 145.052,37.313 		
			"/>
		<path fill="#005980" d="M107.595,41.38l-1.732-13.572c1.214-2.081,4.848-0.594,4.848-0.594l3.584,13.47l15.203-1.587h0.402
			c-25.047,4.454-48.48,19.607-48.48,19.607c-2.22-10.994-11.716-13.369-11.716-13.369L107.595,41.38z"/>
		<path fill="#0081BA" d="M31.728,39.097c0,0-6.263-18.718-13.737-23.471c0,0,9.495,10.991,12.122,23.471H31.728z"/>
		<path fill="#0081BA" d="M17.182,15.626c0,0.986,0.542,1.78,1.213,1.78c0.668,0,1.211-0.794,1.211-1.78
			c0-0.983-0.543-1.781-1.211-1.781C17.724,13.845,17.182,14.643,17.182,15.626z"/>
		<path fill="#005980" d="M209.925,44.965c0,0-10.822-2.394-45.259,2.396c0,0,41.768-2.222,41.188,0.345
			c-0.584,2.566-16.389,2.311-16.389,2.311s16.038,0.597,14.758,3.336c-1.278,2.737-6.708,2.102-6.708,2.102l7.522,3.886
			c0,0,3.828-8.935,4.888-14.03"/>
		<path fill="#005980" d="M6.724,42.221c0,0,25.616-5.566,51.814,9.415c0,0-32.312-1.926-48.903,7.491
			c0,0,8.587-9.415,31.437-10.272c0,0-15.718-4.067-32.164,1.284c0,0,1.892-4.496,25.033-4.923
			C33.94,45.216,17.785,40.722,6.724,42.221z"/>
		<path fill="#005980" d="M149.454,9.579c0,0-69.152-5.262-82.264,21.041C67.19,30.62,72.296,1.314,149.454,9.579z"/>
	</g>
	<path fill="#F8B133" stroke="#005980" d="M217.576,37.544c2.42-3.577,3.166-5.715,1.544-5.751c-1.886-0.04-5.705,2.905-8.123,6.48
		c-2.42,3.577-2.211,6.88-0.637,6.48C211.922,44.345,215.161,41.122,217.576,37.544z"/>
</g>
<g>
	<g>
		<path fill-rule="evenodd" clip-rule="evenodd" fill="#1D1D1B" d="M167.4,71.61c0-10.648,8.577-19.28,19.154-19.28
			c10.579,0,19.157,8.632,19.157,19.28c0,10.651-8.578,19.284-19.157,19.284C175.977,90.894,167.4,82.261,167.4,71.61z"/>
		<path fill-rule="evenodd" clip-rule="evenodd" fill="#CECEB8" d="M173.317,71.61c0-7.36,5.929-13.326,13.237-13.326
			c7.315,0,13.239,5.966,13.239,13.326c0,7.361-5.924,13.327-13.239,13.327C179.246,84.937,173.317,78.971,173.317,71.61z"/>
		<g>
			<path fill-rule="evenodd" clip-rule="evenodd" fill="#BD1622" d="M187.515,61.865c-0.527-3.868-1.39-3.868-1.917,0
				c-0.527,3.868-4.066,6.469-7.864,5.781c-3.799-0.688-4.064,0.141-0.592,1.842c3.473,1.701,4.824,5.91,3.004,9.354
				c-1.82,3.442-1.123,3.955,1.551,1.14c2.673-2.815,7.047-2.815,9.721,0c2.673,2.815,3.369,2.303,1.548-1.14
				c-1.821-3.443-0.47-7.652,3.004-9.354c3.474-1.701,3.208-2.53-0.591-1.842C191.579,68.333,188.041,65.733,187.515,61.865z"/>
		</g>
		<path fill-rule="evenodd" clip-rule="evenodd" fill="#B1B28F" d="M182.051,71.61c0-2.502,2.015-4.535,4.504-4.535
			c2.489,0,4.505,2.033,4.505,4.535c0,2.503-2.016,4.534-4.505,4.534C184.065,76.144,182.051,74.113,182.051,71.61z"/>
	</g>
</g>
<g>
	<g>
		<path fill-rule="evenodd" clip-rule="evenodd" fill="#1D1D1B" d="M33.296,72.507c0-10.648,8.577-19.28,19.154-19.28
			c10.579,0,19.156,8.632,19.156,19.28c0,10.651-8.577,19.284-19.156,19.284C41.873,91.791,33.296,83.159,33.296,72.507z"/>
		<path fill-rule="evenodd" clip-rule="evenodd" fill="#CECEB8" d="M39.212,72.507c0-7.359,5.929-13.326,13.238-13.326
			c7.315,0,13.239,5.967,13.239,13.326c0,7.361-5.924,13.327-13.239,13.327C45.141,85.834,39.212,79.869,39.212,72.507z"/>
		<g>
			<path fill-rule="evenodd" clip-rule="evenodd" fill="#BD1622" d="M53.409,62.762c-0.526-3.868-1.389-3.868-1.916,0
				c-0.527,3.868-4.066,6.469-7.865,5.78c-3.799-0.688-4.064,0.142-0.592,1.844c3.473,1.701,4.825,5.91,3.004,9.353
				c-1.82,3.442-1.122,3.955,1.551,1.14c2.674-2.815,7.048-2.815,9.721,0c2.673,2.815,3.369,2.303,1.549-1.14
				c-1.821-3.442-0.47-7.651,3.004-9.353c3.473-1.702,3.207-2.531-0.592-1.844C57.475,69.231,53.937,66.63,53.409,62.762z"/>
		</g>
		<ellipse fill-rule="evenodd" clip-rule="evenodd" fill="#B1B28F" cx="52.45" cy="72.507" rx="4.504" ry="4.534"/>
	</g>
</g>
</svg>
