<?xml version="1.0" encoding="utf-8"?>
<!-- Generator: Adobe Illustrator 18.1.1, SVG Export Plug-In . SVG Version: 6.00 Build 0)  -->
<svg version="1.1" id="Capa_1" xmlns="http://www.w3.org/2000/svg" xmlns:xlink="http://www.w3.org/1999/xlink" x="0px" y="0px"
	 viewBox="0 0 550 31.946" enable-background="new 0 0 550 31.946" xml:space="preserve">
<g id="Automóvil">
</g>
<path fill="#1C1C1B" d="M550,7.549c-0.242,0.01-0.487,0.018-0.743,0.018c-9.882,0-9.882-7.567-19.766-7.567
	c-9.887,0-9.887,7.567-19.771,7.567c-9.886,0-9.886-7.567-19.772-7.567c-9.883,0-9.883,7.567-19.768,7.567
	c-9.886,0-9.886-7.567-19.77-7.567c-9.884,0-9.884,7.567-19.771,7.567c-9.883,0-9.883-7.567-19.766-7.567
	c-9.888,0-9.888,7.567-19.772,7.567c-9.882,0-9.882-7.567-19.768-7.567c-9.379,0-9.863,6.811-18.336,7.505
	C344.523,6.811,344.039,0,334.656,0c-9.889,0-9.889,7.567-19.775,7.567c-9.885,0-9.885-7.567-19.772-7.567
	c-9.886,0-9.886,7.567-19.771,7.567C265.45,7.567,265.45,0,255.564,0c-9.885,0-9.885,7.567-19.771,7.567
	c-9.886,0-9.886-7.567-19.77-7.567c-9.883,0-9.883,7.567-19.768,7.567c-9.881,0-9.881-7.567-19.765-7.567
	c-9.887,0-9.887,7.567-19.77,7.567c-9.886,0-9.886-7.567-19.771-7.567c-9.883,0-9.883,7.567-19.768,7.567
	c-9.886,0-9.886-7.567-19.77-7.567s-9.884,7.567-19.771,7.567C67.759,7.567,67.759,0,57.876,0c-9.888,0-9.888,7.567-19.772,7.567
	C28.222,7.567,28.222,0,18.336,0C8.957,0,8.472,6.811,0,7.505v24.44h550V7.549z"/>
</svg>
